<?xml version="1.0" standalone="no"?>
<!DOCTYPE svg PUBLIC "-//W3C//DTD SVG 20010904//EN"
 "http://www.w3.org/TR/2001/REC-SVG-20010904/DTD/svg10.dtd">
<svg version="1.0" xmlns="http://www.w3.org/2000/svg"
 width="250.000000pt" height="221.000000pt" viewBox="0 0 250.000000 221.000000"
 preserveAspectRatio="xMidYMid meet">

<g transform="translate(0.000000,221.000000) scale(0.100000,-0.100000)"
fill="#000000" stroke="none">
<path d="M734 2090 c-12 -4 -146 -149 -299 -322 -153 -172 -287 -323 -298
-335 -39 -44 -28 -72 115 -270 73 -102 143 -192 156 -201 33 -22 75 -9 154 49
l69 50 -3 -363 c-3 -393 0 -420 49 -478 14 -18 45 -44 67 -58 l41 -27 445 -3
c395 -2 450 -1 489 14 58 22 110 70 135 124 20 43 21 58 18 418 l-3 373 70
-51 c74 -53 117 -68 148 -51 24 12 286 372 294 404 3 12 3 31 -1 42 -14 36
-597 682 -621 688 -36 10 -1001 7 -1025 -3z m702 -184 c-11 -57 -75 -173 -116
-210 -53 -48 -87 -48 -140 0 -39 35 -102 149 -114 206 l-6 27 102 3 c57 2 143
3 191 4 l89 1 -6 -31z m-524 -47 c47 -193 177 -347 311 -365 91 -13 183 36
260 138 49 65 101 185 113 257 l7 41 48 0 48 0 217 -242 c120 -134 233 -259
251 -279 l34 -36 -77 -104 c-42 -57 -80 -108 -84 -113 -5 -4 -57 26 -116 68
-118 83 -150 92 -191 54 l-23 -21 0 -453 c0 -249 -3 -460 -6 -469 -17 -42 -44
-45 -448 -45 -242 0 -395 4 -412 10 -55 21 -53 10 -54 499 0 453 0 455 -22
478 -38 41 -73 32 -193 -53 -58 -42 -108 -74 -110 -72 -1 1 -39 52 -84 113
l-81 109 33 36 c19 19 132 144 251 278 l217 242 47 0 47 0 17 -71z"/>
</g>
</svg>
